<?xml version="1.0" standalone="no"?>
<!DOCTYPE svg PUBLIC "-//W3C//DTD SVG 20010904//EN"
 "http://www.w3.org/TR/2001/REC-SVG-20010904/DTD/svg10.dtd">
<svg version="1.0" xmlns="http://www.w3.org/2000/svg"
 width="127.000000pt" height="127.000000pt" viewBox="0 0 127.000000 127.000000"
 preserveAspectRatio="xMidYMid meet">
<metadata>
Created by potrace 1.14, written by Peter Selinger 2001-2017
</metadata>
<g transform="translate(0.000000,127.000000) scale(0.100000,-0.100000)"
fill="#000000" stroke="none">
<path d="M910 1111 c0 -6 4 -13 10 -16 6 -3 7 1 4 9 -7 18 -14 21 -14 7z"/>
<path d="M550 1091 c0 -6 4 -13 10 -16 6 -3 7 1 4 9 -7 18 -14 21 -14 7z"/>
<path d="M630 1086 c0 -2 8 -10 18 -17 15 -13 16 -12 3 4 -13 16 -21 21 -21
13z"/>
<path d="M1020 1076 c0 -2 8 -10 18 -17 15 -13 16 -12 3 4 -13 16 -21 21 -21
13z"/>
<path d="M625 989 c-3 -4 2 -6 10 -5 21 3 28 13 10 13 -9 0 -18 -4 -20 -8z"/>
<path d="M279 943 c-13 -16 -12 -17 4 -4 16 13 21 21 13 21 -2 0 -10 -8 -17
-17z"/>
<path d="M386 938 c2 -3 -2 -9 -8 -11 -10 -4 -10 -6 0 -6 6 -1 12 -8 12 -17 0
-8 -4 -13 -8 -10 -4 2 -14 0 -22 -5 -13 -9 -13 -10 0 -8 39 4 61 -1 54 -13 -5
-9 -2 -9 9 1 12 9 17 10 17 2 0 -7 4 -10 9 -7 5 3 11 -7 13 -24 2 -16 1 -27
-4 -24 -11 7 -10 -7 1 -25 5 -7 5 -27 1 -42 -5 -16 -6 -29 -2 -29 8 0 7 -144
-1 -157 -3 -5 -2 -15 3 -23 6 -9 3 -19 -8 -28 -9 -7 -11 -10 -3 -6 11 5 13 -1
9 -30 -2 -20 -2 -36 2 -36 3 0 5 -20 5 -44 0 -24 -4 -42 -9 -38 -5 3 -6 -3 -3
-12 6 -16 3 -17 -19 -12 -17 5 -23 3 -19 -4 9 -14 -8 -13 -24 3 -11 10 -12 9
-7 -1 4 -7 2 -20 -6 -29 -10 -13 -10 -15 0 -9 9 6 11 -1 8 -26 -3 -18 -3 -28
0 -21 4 9 69 12 246 13 133 0 243 2 245 4 2 2 4 41 6 87 l2 84 -50 2 c-27 1
-44 0 -37 -3 10 -5 10 -9 0 -22 -11 -13 -11 -14 0 -8 11 7 12 4 5 -10 -5 -11
-8 -29 -7 -41 1 -17 -4 -23 -18 -23 -13 0 -17 4 -12 13 5 8 2 8 -9 -2 -14 -11
-20 -11 -34 0 -9 8 -14 9 -10 3 4 -8 -12 -12 -54 -13 -46 -1 -58 2 -53 11 5 9
2 8 -10 -1 -26 -22 -38 -1 -40 68 -1 50 2 60 13 56 10 -4 9 1 -4 15 -11 12
-13 20 -6 20 7 0 9 5 5 12 -11 18 -12 48 -2 48 5 0 4 8 -1 18 -7 14 -6 25 6
42 9 13 11 20 5 16 -8 -5 -12 1 -13 16 -1 28 -1 116 1 143 1 11 -1 33 -3 48
-4 26 -2 28 19 24 13 -2 24 0 24 6 0 5 8 3 17 -4 10 -8 14 -9 10 -2 -4 6 -4
14 1 17 4 2 7 17 7 32 l-2 28 -125 0 c-70 1 -124 -2 -122 -6z"/>
<path d="M276 912 c-3 -5 1 -9 9 -9 8 0 12 4 9 9 -3 4 -7 8 -9 8 -2 0 -6 -4
-9 -8z"/>
<path d="M740 876 c0 -2 8 -10 18 -17 15 -13 16 -12 3 4 -13 16 -21 21 -21 13z"/>
<path d="M830 806 c0 -2 8 -10 18 -17 15 -13 16 -12 3 4 -13 16 -21 21 -21 13z"/>
<path d="M754 719 c-3 -6 -2 -15 3 -20 5 -5 9 -1 9 11 0 23 -2 24 -12 9z"/>
<path d="M994 719 c-3 -6 -2 -15 3 -20 5 -5 9 -1 9 11 0 23 -2 24 -12 9z"/>
<path d="M715 710 c-3 -5 -1 -10 4 -10 6 0 11 5 11 10 0 6 -2 10 -4 10 -3 0
-8 -4 -11 -10z"/>
<path d="M955 710 c-3 -5 -1 -10 4 -10 6 0 11 5 11 10 0 6 -2 10 -4 10 -3 0
-8 -4 -11 -10z"/>
<path d="M869 673 c-13 -16 -12 -17 4 -4 9 7 17 15 17 17 0 8 -8 3 -21 -13z"/>
<path d="M313 625 c0 -8 4 -12 9 -9 5 3 6 10 3 15 -9 13 -12 11 -12 -6z"/>
<path d="M304 592 c4 -3 14 -7 22 -8 9 -1 13 0 10 4 -4 3 -14 7 -22 8 -9 1
-13 0 -10 -4z"/>
<path d="M719 583 c-13 -16 -12 -17 4 -4 16 13 21 21 13 21 -2 0 -10 -8 -17
-17z"/>
<path d="M834 550 c0 -13 4 -16 10 -10 7 7 7 13 0 20 -6 6 -10 3 -10 -10z"/>
<path d="M870 550 c0 -5 5 -10 11 -10 5 0 7 5 4 10 -3 6 -8 10 -11 10 -2 0 -4
-4 -4 -10z"/>
<path d="M319 503 c-13 -16 -12 -17 4 -4 9 7 17 15 17 17 0 8 -8 3 -21 -13z"/>
<path d="M599 488 c-5 -18 -6 -38 -1 -34 7 8 12 36 6 36 -2 0 -4 -1 -5 -2z"/>
<path d="M627 469 c7 -7 15 -10 18 -7 3 3 -2 9 -12 12 -14 6 -15 5 -6 -5z"/>
<path d="M306 352 c-2 -4 4 -8 14 -8 10 0 16 4 14 8 -3 4 -9 8 -14 8 -5 0 -11
-4 -14 -8z"/>
<path d="M216 328 c3 -5 10 -6 15 -3 13 9 11 12 -6 12 -8 0 -12 -4 -9 -9z"/>
<path d="M585 230 c-3 -6 1 -7 9 -4 18 7 21 14 7 14 -6 0 -13 -4 -16 -10z"/>
<path d="M919 223 c-13 -16 -12 -17 4 -4 16 13 21 21 13 21 -2 0 -10 -8 -17
-17z"/>
<path d="M479 183 c-13 -16 -12 -17 4 -4 16 13 21 21 13 21 -2 0 -10 -8 -17
-17z"/>
<path d="M436 177 c3 -10 9 -15 12 -12 3 3 0 11 -7 18 -10 9 -11 8 -5 -6z"/>
</g>
</svg>
