<?xml version="1.0" standalone="no"?>
<!DOCTYPE svg PUBLIC "-//W3C//DTD SVG 20010904//EN"
 "http://www.w3.org/TR/2001/REC-SVG-20010904/DTD/svg10.dtd">
<svg version="1.0" xmlns="http://www.w3.org/2000/svg"
 width="1072.000000pt" height="1072.000000pt" viewBox="0 0 1072.000000 1072.000000"
 preserveAspectRatio="xMidYMid meet">
<metadata>
Created by potrace 1.14, written by Peter Selinger 2001-2017
</metadata>
<g transform="translate(0.000000,1072.000000) scale(0.100000,-0.100000)"
fill="#000000" stroke="none">
<path d="M6465 8894 c-418 -45 -797 -243 -1141 -596 -353 -362 -636 -847 -894
-1530 -75 -198 -95 -227 -166 -247 -29 -8 -52 -7 -99 5 -130 33 -257 79 -406
150 -140 66 -278 114 -331 114 -42 0 -46 -86 -8 -160 62 -121 315 -328 589
-482 178 -99 184 -114 134 -350 -19 -90 -47 -244 -63 -343 -52 -320 -64 -446
-144 -1511 -25 -341 -29 -355 -94 -396 -41 -25 -62 -26 -293 -9 -229 17 -544
10 -679 -14 -321 -58 -580 -208 -691 -400 -59 -102 -81 -195 -87 -361 -7 -234
32 -415 123 -564 157 -259 387 -371 795 -387 409 -16 787 84 1105 294 103 68
175 127 295 240 101 95 115 103 175 103 40 0 67 -12 198 -87 375 -214 734
-351 1045 -398 113 -17 361 -20 482 -5 468 58 852 249 1191 591 313 316 506
625 565 904 8 38 17 113 20 165 9 150 -15 195 -92 176 -43 -11 -143 -117 -279
-297 -137 -180 -267 -324 -450 -499 -246 -235 -407 -328 -625 -361 -267 -41
-846 87 -1228 271 -165 80 -367 197 -398 231 -55 61 -58 112 -29 467 8 103 26
403 40 667 33 638 51 925 76 1190 26 286 34 339 56 377 35 59 61 70 190 79
356 25 431 32 563 50 601 84 1100 279 1453 567 127 105 279 271 365 401 198
299 285 674 241 1036 -65 530 -370 816 -961 900 -108 16 -460 28 -543 19z
m350 -638 c140 -39 266 -130 329 -239 88 -150 115 -404 60 -570 -54 -166 -175
-329 -354 -479 -334 -280 -747 -454 -1238 -522 -196 -27 -258 -18 -304 47 -36
50 -34 107 6 262 237 906 613 1412 1121 1511 90 17 299 12 380 -10z m-3340
-5178 c44 -14 130 -46 192 -72 172 -73 202 -120 168 -264 -29 -123 -96 -245
-184 -333 -43 -43 -99 -88 -129 -103 -164 -83 -414 -88 -586 -12 -107 48 -198
160 -225 277 -32 139 11 297 107 395 55 56 108 87 192 113 94 29 102 30 250
26 108 -2 151 -8 215 -27z"/>
</g>
</svg>
